<svg width="900" height="600" viewBox="0 0 900 600" fill="none" xmlns="http://www.w3.org/2000/svg">
<g clip-path="url(#clip0)">
<path d="M900 0H0V600H900V0Z" fill="#1F1F1F"/>
<path d="M0 311L50 321.8C100 332.7 200 354.3 300 371.8C400 389.3 500 402.7 600 396.5C700 390.3 800 364.7 850 351.8L900 339V601H850C800 601 700 601 600 601C500 601 400 601 300 601C200 601 100 601 50 601H0V311Z" fill="#733FE2"/>
<path d="M57.2748 370.498L57.2249 383.248L53.073 383.732C52.508 383.297 51.9616 382.378 51.4338 380.976L28.5839 380.886C28.0786 382.251 27.5083 383.166 26.8732 383.63L22.7252 383.113L22.7688 371.964C22.7897 366.597 24.3064 362.353 27.3186 359.231C30.3309 356.076 34.7538 354.51 40.5871 354.533C46.387 354.556 50.6314 356.006 53.3201 358.883C55.9757 361.727 57.2939 365.598 57.2748 370.498ZM51.8119 373.777L51.826 370.177C51.8358 367.677 51.0934 365.708 49.5991 364.268C48.0715 362.796 45.1244 362.051 40.7577 362.034C32.4245 362.001 28.2455 365.135 28.2209 371.435L28.2121 373.685L51.8119 373.777ZM57.4627 322.42L57.372 345.62L53.2201 346.104C52.6551 345.668 52.1087 344.749 51.5809 343.347L28.731 343.258C28.2257 344.622 27.6555 345.537 27.0203 346.001L22.8723 345.485L22.9614 322.685L31.6614 322.719L32.0969 326.421C31.4272 327.185 30.1915 327.797 28.3897 328.256L28.3592 336.056L36.9591 336.09L36.9863 329.14C35.9879 328.736 35.2895 328.317 34.8912 327.882L35.2535 324.733L44.1534 324.768L44.5411 327.919C44.2061 328.351 43.5045 328.765 42.4363 329.161L42.4091 336.111L51.959 336.148L51.9911 327.949C50.2594 327.508 49.0285 326.887 48.2983 326.084L48.7628 322.386L57.4627 322.42Z" fill="#6345B5"/>
<path d="M57.7888 302.968L28.8519 312.355C28.3129 313.786 27.7426 314.717 27.1409 315.148L22.9929 314.632L23.0386 302.932L27.1906 302.448C27.8221 302.917 28.3521 303.77 28.7806 305.005L43.5971 300.812C45.8998 300.121 48.0182 299.696 49.9521 299.537L50.8023 299.491L50.8051 298.791C48.7719 298.749 46.4068 298.323 43.71 297.513L28.8775 293.005C28.4392 294.27 27.8858 295.151 27.2172 295.648L23.0691 295.132L23.1137 283.732L27.2656 283.248C27.9966 283.851 28.6256 284.97 29.1525 286.606L57.8156 296.118L57.7888 302.968ZM57.7342 252.973L57.6435 276.173L53.4916 276.657C52.9266 276.221 52.3802 275.302 51.8524 273.9L29.0025 273.811C28.4972 275.176 27.927 276.09 27.2918 276.554L23.1438 276.038L23.2329 253.238L31.9329 253.272L32.3684 256.974C31.6987 257.738 30.463 258.35 28.6612 258.81L28.6307 266.609L37.2306 266.643L37.2578 259.693C36.2594 259.289 35.561 258.87 35.1627 258.435L35.525 255.286L44.425 255.321L44.8126 258.473C44.4776 258.905 43.776 259.319 42.7078 259.714L42.6806 266.664L52.2305 266.702L52.2626 258.502C50.5309 258.062 49.3 257.44 48.5698 256.637L49.0343 252.939L57.7342 252.973ZM57.8599 220.82L57.7704 243.72L53.6185 244.204C53.0535 243.768 52.5071 242.85 51.9792 241.447L29.1294 241.358C28.6241 242.723 28.0538 243.637 27.4187 244.101L23.2707 243.585L23.3164 231.885L27.4683 231.402C28.0996 231.937 28.6627 232.856 29.1576 234.158L52.3574 234.249L52.3883 226.349C50.6567 225.909 49.4257 225.287 48.6955 224.484L49.16 220.786L57.8599 220.82ZM58.343 199.574C58.3245 204.308 56.944 207.852 54.2014 210.208C51.459 212.531 47.0378 213.68 40.9378 213.656C34.8045 213.632 30.2929 212.331 27.403 209.753C24.4798 207.142 23.0276 203.453 23.0462 198.686C23.065 193.886 24.3789 190.325 26.988 188.002C29.5972 185.645 33.9518 184.479 40.0518 184.503C46.1517 184.527 50.7299 185.861 53.7862 188.506C56.8426 191.152 58.3615 194.841 58.343 199.574ZM31.2742 204.319C33.0029 205.525 36.0172 206.137 40.3171 206.154C44.6171 206.171 47.7529 205.55 49.7245 204.291C51.6961 203.032 52.6862 201.302 52.6948 199.102C52.7035 196.869 51.7936 195.132 49.9652 193.892C48.1033 192.651 45.0224 192.022 40.7225 192.005C32.7225 191.974 28.7132 194.358 28.6944 199.158C28.6857 201.392 29.5456 203.112 31.2742 204.319ZM46.083 163.747L46.0742 165.997L51.9741 166.02C52.517 163.589 53.1729 162.075 53.9419 161.478L58.0899 161.994L58.0371 175.494L53.8852 175.978C53.3202 175.542 52.7738 174.624 52.246 173.221L29.3962 173.132C28.8908 174.497 28.3206 175.411 27.6854 175.875L23.5374 175.359L23.5892 162.109C23.674 157.476 24.5375 154.03 26.1796 151.769C27.7886 149.476 30.6598 148.337 34.7931 148.353C42.3597 148.383 46.123 153.514 46.083 163.747ZM29.036 162.931L29.0243 165.931L40.6242 165.976L40.6373 162.626C40.6462 160.359 40.2028 158.674 39.3071 157.571C38.4115 156.434 36.8637 155.861 34.6637 155.853C32.4304 155.844 30.9447 156.455 30.2065 157.685C29.4352 158.882 29.045 160.631 29.036 162.931ZM58.2679 116.472L58.1772 139.672L54.0253 140.156C53.4603 139.72 52.9139 138.802 52.386 137.399L29.5362 137.31C29.0309 138.675 28.4606 139.589 27.8255 140.053L23.6774 139.537L23.7666 116.737L32.4665 116.771L32.902 120.473C32.2324 121.237 30.9967 121.849 29.1948 122.309L29.1644 130.109L37.7643 130.142L37.7915 123.192C36.793 122.788 36.0947 122.369 35.6964 121.934L36.0587 118.785L44.9586 118.82L45.3463 121.972C45.0113 122.404 44.3096 122.818 43.2414 123.214L43.2142 130.164L52.7642 130.201L52.7962 122.001C51.0646 121.561 49.8337 120.939 49.1035 120.136L49.568 116.438L58.2679 116.472ZM34.008 80.574C36.2747 80.5829 38.1719 81.307 39.6996 82.7463C41.2274 84.1523 42.3872 85.9235 43.1788 88.0599C43.8854 86.396 44.7397 85.2994 45.7417 84.7699L52.7059 81.1471C53.2454 79.5826 53.8662 78.5183 54.5684 77.9544L58.4165 78.4694L58.3834 86.9194L46.111 92.6214C44.8756 93.15 44.2566 93.7642 44.2538 94.4642L44.2411 97.7142L52.2411 97.7454C52.7839 95.3142 53.4398 93.8001 54.2088 93.2031L58.3568 93.7193L58.3041 107.219L54.1521 107.703C53.5872 107.267 53.0408 106.349 52.5129 104.947L29.6631 104.857C29.1577 106.222 28.5875 107.136 27.9523 107.601L23.8043 107.084L23.8542 94.3344C23.9391 89.6681 24.7026 86.2044 26.1448 83.9433C27.587 81.6823 30.2081 80.5592 34.008 80.574ZM29.3028 94.7057L29.2912 97.6557L38.7912 97.6929L38.8023 94.8429C38.8112 92.5762 38.4844 90.8916 37.822 89.789C37.1265 88.653 35.8954 88.0815 34.1287 88.0746C32.3621 88.0677 31.1265 88.6295 30.4221 89.7601C29.6843 90.8905 29.3112 92.5391 29.3028 94.7057Z" fill="#313131"/>
</g>
<defs>
<clipPath id="clip0">
<rect width="900" height="600" fill="white"/>
</clipPath>
</defs>
</svg>
