<svg width="900" height="600" viewBox="0 0 900 600" fill="none" xmlns="http://www.w3.org/2000/svg">
<path d="M900 0H0V600H900V0Z" fill="#1F1F1F"/>
<path d="M0 77H50C100 77 200 77 300 71.3C400 65.7 500 54.3 600 57.5C700 60.7 800 78.3 850 87.2L900 96V0H850C800 0 700 0 600 0C500 0 400 0 300 0C200 0 100 0 50 0H0V77Z" fill="#733FE2"/>
<path d="M850.668 73.4975C852.001 73.5046 854.067 73.6323 856.866 73.8805L858.066 73.9869L858.118 73.4872C855.289 72.7055 853.043 72.0268 851.379 71.4513L831.865 64.6973L831.9 58.0474L851.487 51.1516C852.99 50.5262 854.86 49.9695 857.096 49.4814L858.248 49.1875L858.2 48.6873C855.232 48.9715 852.765 49.1083 850.798 49.0979L837.648 49.0279C837.175 50.2587 836.553 51.1721 835.784 51.768L831.936 51.2475L831.988 41.4477L835.841 40.9682C836.605 41.5722 837.216 42.4922 837.676 43.728L860.776 43.8509C861.283 42.4869 861.905 41.5402 862.641 41.0108L866.488 41.5313L866.428 52.9311L846.239 60.1238C844.034 61.0454 842.014 61.6346 840.18 61.8915L839.329 62.037L839.325 62.737C841.358 62.8812 843.655 63.4934 846.216 64.5737L866.328 71.6309L866.269 82.8307L862.416 83.3102C861.686 82.773 861.074 81.8197 860.581 80.4504L837.682 80.3285C837.175 81.6258 836.586 82.5394 835.917 83.0692L831.77 82.5471L831.83 71.1472L835.933 70.6691C836.597 71.2059 837.175 72.1257 837.668 73.4283L850.668 73.4975Z" fill="#6345B5"/>
<path d="M833.7 114.469C832.045 112.16 831.227 109.439 831.243 106.306C831.26 103.206 831.921 101.043 833.228 99.8164C834.534 98.59 836.654 97.9846 839.588 98.0002L851.137 98.0617C851.544 96.8972 852.115 95.9835 852.852 95.3208L856.699 95.8413C857.123 97.7102 857.33 99.4447 857.322 101.045C857.313 102.645 857.256 103.994 857.15 105.094L841.2 105.009C839.4 104.999 838.199 105.26 837.596 105.79C837.026 106.353 836.737 107.452 836.729 109.085C836.72 110.718 837.245 112.238 838.304 113.644L851.054 113.711C851.46 112.547 852.032 111.633 852.769 110.971L856.616 111.491C857.039 113.36 857.247 115.094 857.238 116.694C857.23 118.294 857.173 119.644 857.067 120.744L837.567 120.64C837.327 121.805 837.039 122.72 836.702 123.385L832.752 123.364C831.696 121.359 831.177 118.839 831.193 115.806C831.797 114.976 832.633 114.53 833.7 114.469ZM866.988 135.491C867.412 137.36 867.619 139.095 867.611 140.695C867.602 142.295 867.545 143.644 867.439 144.744L854.939 144.677C855.468 145.48 855.913 146.549 856.272 147.884C856.632 149.22 856.809 150.404 856.803 151.437C856.786 154.737 855.974 157.016 854.367 158.274C852.76 159.532 850.324 160.153 847.057 160.135L836.907 160.081C836.4 161.379 835.829 162.292 835.192 162.822L831.345 162.302L831.406 150.802L835.259 150.322C835.89 150.792 836.452 151.712 836.944 153.081L846.844 153.134C848.644 153.144 849.846 152.85 850.449 152.253C851.085 151.69 851.408 150.642 851.416 149.108C851.424 147.575 850.898 146.089 849.839 144.65L836.99 144.582C836.483 145.879 835.911 146.793 835.275 147.323L831.428 146.802L831.489 135.302L835.341 134.823C835.972 135.293 836.534 136.212 837.027 137.582L861.426 137.712C861.833 136.547 862.404 135.633 863.141 134.971L866.988 135.491ZM852.574 175.665C853.074 175.668 853.608 175.688 854.174 175.724C855.824 178.833 856.64 182.17 856.621 185.737C856.602 189.304 855.905 191.85 854.53 193.376C853.188 194.936 850.951 195.707 847.818 195.69L837.168 195.634C836.928 196.799 836.64 197.714 836.303 198.379L831.953 198.356C831.162 196.652 830.775 194.216 830.792 191.05C831.661 190.721 832.712 190.443 833.947 190.216C831.854 188.772 830.818 186.166 830.838 182.4C830.85 180.166 831.51 178.253 832.819 176.66C834.127 175.101 835.898 174.327 838.131 174.338C840.365 174.35 842.111 175.093 843.369 176.566C844.661 178.073 845.3 180.293 845.284 183.227L845.255 188.677L847.655 188.689C850.255 188.703 851.562 187.327 851.577 184.56C851.582 183.527 851.487 182.676 851.291 182.009C849.891 181.935 848.809 181.729 848.044 181.391L848.07 176.491C849.24 175.931 850.741 175.656 852.574 175.665ZM835.927 184.577C835.918 186.277 836.41 187.63 837.405 188.635L841.505 188.657L841.524 185.157C841.536 182.757 840.626 181.552 838.793 181.542C837.96 181.538 837.275 181.784 836.739 182.281C836.203 182.812 835.932 183.577 835.927 184.577ZM856.088 210.771C856.478 212.606 856.669 214.257 856.661 215.724C856.653 217.19 856.614 218.407 856.542 219.373L854.042 219.36C854.704 220.163 855.266 221.166 855.726 222.369C856.186 223.571 856.414 224.656 856.408 225.622C856.388 229.422 855.425 231.951 853.518 233.207C854.314 234.045 854.974 235.148 855.5 236.518C856.06 237.887 856.336 239.156 856.33 240.322C856.311 243.989 855.464 246.451 853.791 247.709C852.151 248.967 849.064 249.584 844.531 249.56L836.431 249.516C835.924 250.814 835.353 251.727 834.716 252.257L830.869 251.737L830.93 240.237L834.783 239.758C835.414 240.228 835.976 241.147 836.468 242.517L846.368 242.569C848.201 242.579 849.419 242.335 850.022 241.839C850.625 241.342 850.93 240.343 850.938 238.844C850.946 237.377 850.403 235.974 849.31 234.635C848.176 234.795 846.609 234.87 844.609 234.86L836.509 234.817C836.002 236.114 835.431 237.028 834.795 237.558L830.947 237.037L831.009 225.537L834.861 225.058C835.492 225.528 836.054 226.447 836.547 227.817L846.446 227.869C848.28 227.879 849.498 227.636 850.1 227.139C850.703 226.642 851.008 225.66 851.016 224.194C851.024 222.727 850.498 221.324 849.438 219.985L836.589 219.917C836.082 221.214 835.51 222.128 834.874 222.658L831.027 222.137L831.088 210.637L834.94 210.158C835.571 210.628 836.133 211.548 836.626 212.917L850.526 212.991C850.932 211.826 851.503 210.913 852.24 210.25L856.088 210.771ZM855.801 264.569C856.191 266.404 856.383 268.055 856.375 269.522C856.367 270.988 856.327 272.205 856.255 273.171L853.755 273.158C854.418 273.961 854.979 274.964 855.439 276.167C855.9 277.369 856.127 278.454 856.122 279.421C856.102 283.22 855.138 285.749 853.232 287.005C854.027 287.843 854.688 288.946 855.214 290.316C855.774 291.685 856.05 292.954 856.044 294.12C856.024 297.787 855.178 300.249 853.505 301.507C851.864 302.765 848.778 303.382 844.245 303.358L836.145 303.315C835.638 304.612 835.066 305.525 834.43 306.055L830.583 305.535L830.644 294.035L834.497 293.556C835.127 294.026 835.689 294.945 836.182 296.315L846.082 296.367C847.915 296.377 849.133 296.134 849.736 295.637C850.338 295.14 850.644 294.142 850.652 292.642C850.659 291.175 850.117 289.772 849.024 288.433C847.89 288.593 846.323 288.668 844.323 288.658L836.223 288.615C835.716 289.912 835.144 290.826 834.508 291.356L830.661 290.835L830.722 279.335L834.575 278.856C835.206 279.326 835.767 280.246 836.26 281.615L846.16 281.668C847.993 281.677 849.211 281.434 849.814 280.937C850.417 280.44 850.722 279.458 850.73 277.992C850.737 276.525 850.212 275.122 849.152 273.783L836.302 273.715C835.795 275.012 835.224 275.926 834.588 276.456L830.74 275.935L830.802 264.436L834.654 263.956C835.285 264.426 835.847 265.346 836.339 266.715L850.239 266.789C850.645 265.624 851.217 264.711 851.954 264.048L855.801 264.569ZM851.812 318.847C852.312 318.85 852.845 318.869 853.412 318.905C855.062 322.014 855.878 325.352 855.859 328.919C855.84 332.485 855.143 335.032 853.768 336.558C852.426 338.117 850.189 338.889 847.056 338.872L836.406 338.815C836.166 339.981 835.878 340.896 835.541 341.561L831.191 341.538C830.4 339.833 830.013 337.398 830.03 334.231C830.898 333.903 831.95 333.625 833.185 333.398C831.092 331.954 830.056 329.348 830.076 325.581C830.088 323.348 830.748 321.435 832.057 319.842C833.365 318.282 835.136 317.508 837.369 317.52C839.602 317.532 841.348 318.275 842.607 319.748C843.899 321.255 844.537 323.475 844.522 326.408L844.493 331.858L846.893 331.871C849.493 331.885 850.8 330.508 850.815 327.742C850.82 326.708 850.725 325.858 850.528 325.19C849.129 325.116 848.047 324.91 847.282 324.573L847.308 319.673C848.477 319.113 849.979 318.837 851.812 318.847ZM835.165 327.758C835.156 329.458 835.648 330.811 836.643 331.816L840.743 331.838L840.762 328.338C840.774 325.938 839.864 324.733 838.031 324.724C837.197 324.719 836.513 324.966 835.977 325.463C835.441 325.993 835.17 326.758 835.165 327.758ZM865.759 366.508C866.182 368.41 866.389 370.228 866.38 371.961C866.37 373.694 866.313 375.178 866.206 376.41L836.206 376.251C836.034 377.25 835.746 378.165 835.342 378.996L831.392 378.975C830.336 376.969 829.816 374.433 829.832 371.367C830.001 371.034 830.303 370.702 830.738 370.371C831.173 370.074 831.59 369.909 831.99 369.878C831.394 369.142 830.883 368.189 830.456 367.02C830.062 365.851 829.868 364.7 829.874 363.567C829.893 359.967 830.874 357.355 832.816 355.732C834.791 354.143 837.995 353.36 842.428 353.383C847.462 353.41 850.988 354.662 853.008 357.14C854.797 359.316 855.683 361.987 855.666 365.154C855.658 366.554 855.484 367.953 855.143 369.351L860.093 369.378C860.535 367.847 861.141 366.717 861.911 365.987L865.759 366.508ZM834.968 364.644C834.958 366.544 835.517 368.08 836.644 369.253L850.044 369.324C850.384 367.959 850.559 366.51 850.567 364.977C850.575 363.444 849.897 362.323 848.535 361.616C847.205 360.942 845.19 360.598 842.49 360.584C839.823 360.57 837.905 360.893 836.735 361.553C835.564 362.214 834.976 363.244 834.968 364.644Z" fill="#313131"/>
</svg>
